<svg xmlns="http://www.w3.org/2000/svg" xmlns:xlink="http://www.w3.org/1999/xlink" zoomAndPan="magnify" preserveAspectRatio="xMidYMid meet" version="1.0" viewBox="492.83 231.04 491.33 108.9"><defs><clipPath id="9f5370bbec"><path d="M 499.816406 236.453125 L 569.722656 236.453125 L 569.722656 339.546875 L 499.816406 339.546875 Z M 499.816406 236.453125 " clip-rule="nonzero"/></clipPath><clipPath id="38fdb5add9"><path d="M 521.453125 337.582031 C 525.53125 338.902344 529.875 339.546875 534.371094 339.546875 C 539.316406 339.546875 543.960938 338.941406 548.113281 337.808594 C 552.457031 336.601562 556.269531 334.636719 559.40625 331.992188 C 562.617188 329.3125 565.109375 325.800781 566.882812 321.570312 C 568.621094 317.417969 569.488281 312.394531 569.488281 306.65625 C 569.488281 301.933594 568.769531 297.855469 567.335938 294.496094 C 565.902344 291.132812 563.976562 288.300781 561.632812 286 C 559.328125 283.769531 556.722656 281.882812 553.777344 280.449219 C 551.058594 279.089844 548.226562 277.878906 545.359375 276.859375 C 542.601562 275.878906 539.882812 274.972656 537.203125 274.140625 C 534.785156 273.386719 532.59375 272.515625 530.707031 271.496094 C 529.046875 270.628906 527.683594 269.570312 526.703125 268.363281 C 525.871094 267.417969 525.496094 266.171875 525.496094 264.585938 C 525.496094 262.660156 526.175781 261.152344 527.609375 259.90625 C 529.160156 258.582031 531.652344 257.902344 534.972656 257.902344 C 537.917969 257.902344 540.148438 258.695312 541.695312 260.359375 C 543.320312 262.09375 544.074219 264.4375 544.074219 267.570312 L 544.074219 272.027344 L 567.789062 272.027344 L 567.789062 267.15625 C 567.789062 261.945312 566.882812 257.335938 565.144531 253.449219 C 563.371094 249.558594 560.953125 246.273438 557.933594 243.742188 C 554.949219 241.25 551.398438 239.363281 547.433594 238.191406 C 543.582031 237.019531 539.46875 236.453125 535.125 236.453125 C 530.859375 236.453125 526.664062 237.019531 522.738281 238.191406 C 518.699219 239.363281 515.109375 241.175781 512.015625 243.59375 C 508.878906 246.046875 506.351562 249.144531 504.5 252.84375 C 502.613281 256.542969 501.667969 260.925781 501.667969 265.832031 C 501.667969 269.683594 502.121094 273.121094 503.027344 276.066406 C 503.933594 279.011719 505.21875 281.65625 506.878906 283.847656 C 508.503906 286.035156 510.390625 287.925781 512.503906 289.472656 C 514.542969 290.945312 516.695312 292.265625 519 293.324219 C 521.191406 294.382812 523.53125 295.289062 525.871094 296.082031 C 528.101562 296.835938 530.253906 297.554688 532.367188 298.308594 C 534.371094 299.027344 536.296875 299.742188 538.109375 300.535156 C 539.730469 301.253906 541.128906 302.085938 542.335938 303.027344 C 543.394531 303.898438 544.226562 304.878906 544.828125 306.050781 C 545.394531 307.144531 545.699219 308.582031 545.699219 310.242188 C 545.699219 311.261719 545.546875 312.207031 545.167969 313.148438 C 544.867188 314.019531 544.375 314.773438 543.621094 315.453125 C 542.867188 316.171875 541.847656 316.773438 540.488281 317.265625 C 539.089844 317.792969 537.277344 318.019531 535.125 318.019531 C 533.238281 318.019531 531.539062 317.757812 530.140625 317.191406 C 528.78125 316.660156 527.648438 315.90625 526.742188 314.925781 C 525.796875 313.941406 525.117188 312.773438 524.625 311.375 C 524.097656 309.902344 523.832031 308.242188 523.832031 306.390625 C 523.832031 306.125 523.832031 305.785156 523.871094 305.410156 C 523.910156 304.765625 523.945312 304.390625 523.945312 304.199219 L 523.945312 300.988281 L 499.929688 300.988281 L 499.929688 304.199219 C 499.929688 304.503906 499.894531 304.878906 499.894531 305.296875 C 499.855469 305.9375 499.816406 306.578125 499.816406 307.183594 C 499.816406 312.433594 500.761719 317.113281 502.648438 321.15625 C 504.539062 325.195312 507.144531 328.632812 510.351562 331.351562 C 513.523438 334.183594 517.261719 336.222656 521.453125 337.582031 Z M 521.453125 337.582031 " clip-rule="nonzero"/></clipPath><clipPath id="6d340eb873"><path d="M 659.382812 236.453125 L 748.972656 236.453125 L 748.972656 339.933594 L 659.382812 339.933594 Z M 659.382812 236.453125 " clip-rule="nonzero"/></clipPath><clipPath id="a0dd5c1571"><path d="M 688.882812 320.621094 L 718.421875 320.621094 L 724.15625 339.585938 L 748.972656 339.585938 L 716.820312 236.453125 L 691.613281 236.453125 L 659.382812 339.546875 L 683.304688 339.546875 Z M 703.710938 270.597656 L 711.671875 297.910156 L 695.632812 297.910156 Z M 703.710938 270.597656 " clip-rule="nonzero"/></clipPath><clipPath id="7155cb0694"><path d="M 765.78125 236.453125 L 789.933594 236.453125 L 789.933594 339.546875 L 765.78125 339.546875 Z M 765.78125 236.453125 " clip-rule="nonzero"/></clipPath><clipPath id="53cc2f0220"><path d="M 894.566406 236.453125 L 984.15625 236.453125 L 984.15625 339.933594 L 894.566406 339.933594 Z M 894.566406 236.453125 " clip-rule="nonzero"/></clipPath><clipPath id="eef60521d7"><path d="M 924.066406 320.621094 L 953.601562 320.621094 L 959.339844 339.585938 L 984.15625 339.585938 L 952.003906 236.453125 L 926.796875 236.453125 L 894.566406 339.546875 L 918.484375 339.546875 Z M 938.890625 270.597656 L 946.851562 297.910156 L 930.816406 297.910156 Z M 938.890625 270.597656 " clip-rule="nonzero"/></clipPath><clipPath id="b8545cf204"><path d="M 806.722656 236.453125 L 877.777344 236.453125 L 877.777344 339.546875 L 806.722656 339.546875 Z M 806.722656 236.453125 " clip-rule="nonzero"/></clipPath><clipPath id="035a92056d"><path d="M 855.535156 288.195312 L 827.402344 236.453125 L 806.722656 236.453125 L 806.722656 339.546875 L 828.730469 339.546875 L 828.730469 287.804688 L 856.902344 339.546875 L 877.777344 339.546875 L 877.777344 236.453125 L 855.535156 236.453125 Z M 855.535156 288.195312 " clip-rule="nonzero"/></clipPath><clipPath id="d21c70b2dc"><path d="M 627.65625 236.453125 L 651.8125 236.453125 L 651.8125 275.511719 L 627.65625 275.511719 Z M 580.796875 236.453125 L 604.871094 236.453125 L 604.871094 275.511719 L 580.796875 275.511719 Z M 580.796875 275.511719 L 651.8125 275.511719 L 651.8125 298.222656 L 580.796875 298.222656 Z M 580.796875 298.222656 L 604.871094 298.222656 L 604.871094 339.546875 L 580.796875 339.546875 Z M 627.65625 298.222656 L 651.8125 298.222656 L 651.8125 339.546875 L 627.65625 339.546875 Z M 627.65625 298.222656 " clip-rule="nonzero"/></clipPath><clipPath id="c1a4524503"><path d="M 492.828125 231.035156 L 562.734375 231.035156 L 562.734375 334.128906 L 492.828125 334.128906 Z M 492.828125 231.035156 " clip-rule="nonzero"/></clipPath><clipPath id="7d0095ace1"><path d="M 514.464844 332.164062 C 518.546875 333.484375 522.886719 334.128906 527.382812 334.128906 C 532.328125 334.128906 536.972656 333.523438 541.125 332.390625 C 545.46875 331.183594 549.285156 329.21875 552.417969 326.574219 C 555.628906 323.894531 558.121094 320.382812 559.894531 316.152344 C 561.632812 312 562.5 306.976562 562.5 301.238281 C 562.5 296.515625 561.78125 292.4375 560.347656 289.078125 C 558.914062 285.714844 556.988281 282.882812 554.644531 280.582031 C 552.34375 278.351562 549.738281 276.464844 546.789062 275.03125 C 544.070312 273.671875 541.238281 272.460938 538.371094 271.441406 C 535.613281 270.460938 532.894531 269.554688 530.214844 268.722656 C 527.796875 267.96875 525.605469 267.097656 523.71875 266.078125 C 522.058594 265.210938 520.699219 264.152344 519.714844 262.945312 C 518.886719 262 518.507812 260.753906 518.507812 259.167969 C 518.507812 257.242188 519.1875 255.734375 520.621094 254.488281 C 522.171875 253.164062 524.664062 252.484375 527.984375 252.484375 C 530.929688 252.484375 533.160156 253.277344 534.707031 254.941406 C 536.332031 256.675781 537.085938 259.019531 537.085938 262.152344 L 537.085938 266.609375 L 560.800781 266.609375 L 560.800781 261.738281 C 560.800781 256.527344 559.894531 251.917969 558.15625 248.03125 C 556.382812 244.140625 553.964844 240.855469 550.945312 238.324219 C 547.960938 235.832031 544.410156 233.945312 540.445312 232.773438 C 536.59375 231.601562 532.480469 231.035156 528.136719 231.035156 C 523.871094 231.035156 519.679688 231.601562 515.75 232.773438 C 511.710938 233.945312 508.121094 235.757812 505.027344 238.175781 C 501.890625 240.628906 499.363281 243.726562 497.511719 247.425781 C 495.625 251.125 494.679688 255.507812 494.679688 260.414062 C 494.679688 264.265625 495.132812 267.703125 496.039062 270.648438 C 496.945312 273.59375 498.230469 276.238281 499.890625 278.429688 C 501.515625 280.617188 503.402344 282.507812 505.515625 284.054688 C 507.554688 285.527344 509.707031 286.847656 512.011719 287.90625 C 514.203125 288.964844 516.542969 289.871094 518.886719 290.664062 C 521.113281 291.417969 523.265625 292.136719 525.378906 292.890625 C 527.382812 293.609375 529.308594 294.324219 531.121094 295.117188 C 532.742188 295.835938 534.140625 296.667969 535.347656 297.609375 C 536.40625 298.480469 537.238281 299.460938 537.839844 300.632812 C 538.40625 301.726562 538.710938 303.164062 538.710938 304.824219 C 538.710938 305.84375 538.558594 306.789062 538.179688 307.730469 C 537.878906 308.601562 537.386719 309.355469 536.632812 310.035156 C 535.878906 310.753906 534.859375 311.355469 533.5 311.847656 C 532.101562 312.375 530.289062 312.601562 528.136719 312.601562 C 526.25 312.601562 524.550781 312.339844 523.152344 311.773438 C 521.792969 311.242188 520.660156 310.488281 519.753906 309.507812 C 518.808594 308.523438 518.128906 307.355469 517.640625 305.957031 C 517.109375 304.484375 516.84375 302.824219 516.84375 300.972656 C 516.84375 300.707031 516.84375 300.367188 516.882812 299.992188 C 516.921875 299.347656 516.957031 298.96875 516.957031 298.78125 L 516.957031 295.570312 L 492.941406 295.570312 L 492.941406 298.78125 C 492.941406 299.085938 492.90625 299.460938 492.90625 299.878906 C 492.867188 300.519531 492.828125 301.160156 492.828125 301.765625 C 492.828125 307.015625 493.773438 311.695312 495.660156 315.738281 C 497.550781 319.777344 500.15625 323.214844 503.363281 325.933594 C 506.535156 328.765625 510.273438 330.804688 514.464844 332.164062 Z M 514.464844 332.164062 " clip-rule="nonzero"/></clipPath><clipPath id="4cb730a39b"><path d="M 652.398438 231.035156 L 741.984375 231.035156 L 741.984375 334.515625 L 652.398438 334.515625 Z M 652.398438 231.035156 " clip-rule="nonzero"/></clipPath><clipPath id="4edc58b967"><path d="M 681.894531 315.203125 L 711.433594 315.203125 L 717.167969 334.167969 L 741.984375 334.167969 L 709.832031 231.035156 L 684.625 231.035156 L 652.398438 334.128906 L 676.316406 334.128906 Z M 696.722656 265.179688 L 704.683594 292.492188 L 688.644531 292.492188 Z M 696.722656 265.179688 " clip-rule="nonzero"/></clipPath><clipPath id="188bb3b913"><path d="M 758.792969 231.035156 L 782.945312 231.035156 L 782.945312 334.128906 L 758.792969 334.128906 Z M 758.792969 231.035156 " clip-rule="nonzero"/></clipPath><clipPath id="cc5513d252"><path d="M 887.578125 231.035156 L 977.167969 231.035156 L 977.167969 334.515625 L 887.578125 334.515625 Z M 887.578125 231.035156 " clip-rule="nonzero"/></clipPath><clipPath id="a66eac9594"><path d="M 917.078125 315.203125 L 946.613281 315.203125 L 952.351562 334.167969 L 977.167969 334.167969 L 945.015625 231.035156 L 919.808594 231.035156 L 887.578125 334.128906 L 911.496094 334.128906 Z M 931.902344 265.179688 L 939.863281 292.492188 L 923.828125 292.492188 Z M 931.902344 265.179688 " clip-rule="nonzero"/></clipPath><clipPath id="72291396c8"><path d="M 799.734375 231.035156 L 870.789062 231.035156 L 870.789062 334.128906 L 799.734375 334.128906 Z M 799.734375 231.035156 " clip-rule="nonzero"/></clipPath><clipPath id="e97f9b7951"><path d="M 848.546875 282.777344 L 820.414062 231.035156 L 799.734375 231.035156 L 799.734375 334.128906 L 821.742188 334.128906 L 821.742188 282.386719 L 849.914062 334.128906 L 870.789062 334.128906 L 870.789062 231.035156 L 848.546875 231.035156 Z M 848.546875 282.777344 " clip-rule="nonzero"/></clipPath><clipPath id="0e7359e638"><path d="M 620.671875 231.035156 L 644.824219 231.035156 L 644.824219 270.09375 L 620.671875 270.09375 Z M 573.808594 231.035156 L 597.882812 231.035156 L 597.882812 270.09375 L 573.808594 270.09375 Z M 573.808594 270.09375 L 644.824219 270.09375 L 644.824219 292.804688 L 573.808594 292.804688 Z M 573.808594 292.804688 L 597.882812 292.804688 L 597.882812 334.128906 L 573.808594 334.128906 Z M 620.671875 292.804688 L 644.824219 292.804688 L 644.824219 334.128906 L 620.671875 334.128906 Z M 620.671875 292.804688 " clip-rule="nonzero"/></clipPath></defs><g clip-path="url(#9f5370bbec)"><g clip-path="url(#38fdb5add9)"><path fill="#888888" d="M 499.816406 236.453125 L 569.449219 236.453125 L 569.449219 339.546875 L 499.816406 339.546875 Z M 499.816406 236.453125 " fill-opacity="1" fill-rule="nonzero"/></g></g><g clip-path="url(#6d340eb873)"><g clip-path="url(#a0dd5c1571)"><path fill="#888888" d="M 659.382812 236.453125 L 748.972656 236.453125 L 748.972656 339.546875 L 659.382812 339.546875 Z M 659.382812 236.453125 " fill-opacity="1" fill-rule="nonzero"/></g></g><g clip-path="url(#7155cb0694)"><path fill="#888888" d="M 765.78125 236.453125 L 789.933594 236.453125 L 789.933594 339.546875 L 765.78125 339.546875 Z M 765.78125 236.453125 " fill-opacity="1" fill-rule="nonzero"/></g><g clip-path="url(#53cc2f0220)"><g clip-path="url(#eef60521d7)"><path fill="#888888" d="M 894.566406 236.453125 L 984.15625 236.453125 L 984.15625 339.546875 L 894.566406 339.546875 Z M 894.566406 236.453125 " fill-opacity="1" fill-rule="nonzero"/></g></g><g clip-path="url(#b8545cf204)"><g clip-path="url(#035a92056d)"><path fill="#888888" d="M 806.722656 236.453125 L 877.777344 236.453125 L 877.777344 339.546875 L 806.722656 339.546875 Z M 806.722656 236.453125 " fill-opacity="1" fill-rule="nonzero"/></g></g><g clip-path="url(#d21c70b2dc)"><path fill="#888888" d="M 580.796875 236.453125 L 651.8125 236.453125 L 651.8125 339.546875 L 580.796875 339.546875 Z M 580.796875 236.453125 " fill-opacity="1" fill-rule="nonzero"/></g><g clip-path="url(#c1a4524503)"><g clip-path="url(#7d0095ace1)"><path fill="#ffffff" d="M 492.828125 231.035156 L 562.460938 231.035156 L 562.460938 334.128906 L 492.828125 334.128906 Z M 492.828125 231.035156 " fill-opacity="1" fill-rule="nonzero"/></g></g><g clip-path="url(#4cb730a39b)"><g clip-path="url(#4edc58b967)"><path fill="#ffffff" d="M 652.398438 231.035156 L 741.984375 231.035156 L 741.984375 334.128906 L 652.398438 334.128906 Z M 652.398438 231.035156 " fill-opacity="1" fill-rule="nonzero"/></g></g><g clip-path="url(#188bb3b913)"><path fill="#ffffff" d="M 758.792969 231.035156 L 782.945312 231.035156 L 782.945312 334.128906 L 758.792969 334.128906 Z M 758.792969 231.035156 " fill-opacity="1" fill-rule="nonzero"/></g><g clip-path="url(#cc5513d252)"><g clip-path="url(#a66eac9594)"><path fill="#ffffff" d="M 887.578125 231.035156 L 977.167969 231.035156 L 977.167969 334.128906 L 887.578125 334.128906 Z M 887.578125 231.035156 " fill-opacity="1" fill-rule="nonzero"/></g></g><g clip-path="url(#72291396c8)"><g clip-path="url(#e97f9b7951)"><path fill="#ffffff" d="M 799.734375 231.035156 L 870.789062 231.035156 L 870.789062 334.128906 L 799.734375 334.128906 Z M 799.734375 231.035156 " fill-opacity="1" fill-rule="nonzero"/></g></g><g clip-path="url(#0e7359e638)"><path fill="#ffffff" d="M 573.808594 231.035156 L 644.824219 231.035156 L 644.824219 334.128906 L 573.808594 334.128906 Z M 573.808594 231.035156 " fill-opacity="1" fill-rule="nonzero"/></g></svg>